<?xml version="1.0" standalone="no"?>
<!DOCTYPE svg PUBLIC "-//W3C//DTD SVG 20010904//EN"
 "http://www.w3.org/TR/2001/REC-SVG-20010904/DTD/svg10.dtd">
<svg version="1.0" xmlns="http://www.w3.org/2000/svg"
 width="512.000000pt" height="512.000000pt" viewBox="0 0 512.000000 512.000000"
 preserveAspectRatio="xMidYMid meet">
<metadata>
Created by potrace 1.16, written by Peter Selinger 2001-2019
</metadata>
<g transform="translate(0.000000,512.000000) scale(0.100000,-0.100000)"
fill="#000000" stroke="none">
<path d="M1356 4369 c-89 -21 -156 -91 -177 -184 -11 -52 -7 -97 16 -172 l7
-23 -191 0 -191 0 0 -175 0 -175 1070 0 1070 0 -2 173 -3 172 -262 3 c-145 1
-263 4 -263 6 0 2 7 20 15 39 19 47 19 144 0 190 -22 54 -74 108 -125 130 -86
39 -241 17 -328 -46 -55 -39 -128 -127 -161 -191 -12 -26 -24 -46 -26 -46 -2
0 -19 28 -38 63 -63 112 -146 190 -234 221 -55 19 -132 25 -177 15z m949 -108
c74 -42 93 -160 38 -229 l-30 -37 -217 -3 c-155 -2 -216 1 -216 9 0 29 70 139
120 189 89 89 219 119 305 71z m-777 -5 c74 -38 170 -157 197 -243 l6 -23
-198 0 c-220 0 -227 2 -257 64 -33 70 -16 149 44 200 44 36 139 37 208 2z
m1360 -435 c2 -59 -1 -98 -8 -105 -12 -12 -1528 -19 -1832 -9 l-168 6 0 103 0
104 1003 -2 1002 -3 3 -94z"/>
<path d="M1053 3622 l-33 -3 0 -915 0 -914 -374 -2 -374 -3 79 -109 c43 -60
79 -112 79 -116 0 -4 -36 -57 -80 -119 l-80 -111 375 0 375 0 0 -155 0 -155
530 0 c307 0 530 4 530 9 0 5 15 -6 34 -25 l34 -34 711 0 711 0 32 29 33 29 5
149 5 148 407 5 408 5 -81 112 -81 113 81 112 81 113 -349 3 -349 2 -6 31 c-3
17 -6 97 -6 176 0 211 -11 223 -196 223 -57 0 -104 2 -104 5 0 2 14 24 30 47
108 153 20 338 -161 338 -127 0 -307 -121 -425 -288 -16 -23 -32 -42 -35 -42
-3 0 -21 21 -40 47 -18 26 -69 83 -112 125 -165 163 -362 205 -468 99 -44 -44
-64 -105 -54 -170 8 -50 35 -110 59 -130 9 -8 16 -17 16 -22 0 -5 -49 -9 -110
-9 -107 0 -110 -1 -142 -29 l-33 -29 -5 -184 -5 -183 -258 -3 c-165 -1 -258 1
-255 7 1 6 144 146 316 311 250 242 312 306 312 327 0 33 31 60 -369 -324
l-336 -323 -142 0 -143 0 0 189 0 189 257 243 c142 134 341 323 443 420 252
239 286 270 292 264 3 -3 79 65 169 151 90 85 201 189 246 230 l82 75 53 -3
53 -3 2 -260 2 -260 -204 -194 c-112 -107 -202 -198 -199 -202 13 -21 70 22
223 169 93 89 172 162 175 162 3 0 6 -74 6 -164 0 -149 2 -165 18 -168 9 -2
25 -2 35 0 16 4 17 36 17 498 l0 494 -22 0 c-221 3 -1662 4 -1685 2z m837 -76
c0 -9 -780 -716 -790 -716 -7 0 -10 93 -10 285 l0 285 90 75 91 75 309 0 c171
0 310 -2 310 -4z m610 -5 c0 -6 -9 -16 -20 -24 -11 -8 -103 -94 -205 -191
-101 -98 -188 -175 -193 -172 -8 5 -127 -105 -578 -535 -333 -317 -400 -379
-408 -379 -3 0 -6 114 -6 253 0 188 3 257 13 269 11 14 750 687 830 756 l38
32 264 0 c160 0 265 -4 265 -9z m6 -1059 c62 -32 137 -96 198 -170 31 -38 56
-72 56 -76 0 -3 -58 -6 -129 -6 -92 0 -143 5 -180 17 -132 42 -202 181 -123
244 23 18 36 20 83 16 30 -3 73 -14 95 -25z m896 -2 c26 -32 23 -94 -7 -146
-20 -34 -40 -50 -92 -76 -64 -31 -73 -33 -205 -36 -76 -3 -138 0 -138 4 1 16
59 88 128 157 89 90 166 130 241 124 41 -3 59 -9 73 -27z m-594 -472 l-3 -113
-362 -3 -361 -2 -6 27 c-6 33 -6 185 1 196 2 4 168 7 369 7 l365 0 -3 -112z
m830 0 l-3 -113 -362 -3 -363 -2 0 115 0 115 365 0 366 0 -3 -112z m-2542
-433 c27 -35 52 -65 57 -65 4 0 7 30 7 66 0 48 3 65 13 62 16 -6 17 -190 1
-195 -6 -2 -33 26 -60 61 -27 36 -52 66 -56 66 -5 0 -8 -30 -8 -66 0 -41 -4
-63 -10 -59 -17 11 -12 195 5 195 1 0 24 -29 51 -65z m425 36 c41 -42 41 -101
-1 -142 -26 -27 -35 -30 -82 -27 l-53 3 -3 84 c-2 46 -1 90 2 98 4 8 23 13 56
13 44 0 56 -5 81 -29z m715 -36 c54 -73 64 -71 64 13 0 28 5 52 10 52 6 0 10
-40 10 -100 0 -55 -4 -100 -9 -100 -5 0 -33 32 -63 70 l-53 70 -3 -70 c-3 -68
-14 -90 -27 -51 -6 21 -5 134 2 164 7 28 19 20 69 -48z m584 15 c18 -27 33
-50 35 -50 2 0 20 23 40 51 23 33 40 48 46 42 14 -14 7 -185 -8 -190 -8 -3
-13 16 -15 64 l-3 68 -23 -37 c-29 -46 -42 -47 -65 -8 -26 44 -37 37 -37 -24
0 -30 -4 -58 -10 -61 -6 -4 -10 30 -10 94 0 56 4 101 9 101 5 0 23 -22 41 -50z
m539 37 c15 -19 4 -26 -33 -20 -66 10 -106 -67 -61 -117 25 -28 80 -24 80 5 0
13 -8 21 -23 23 -35 5 -20 27 19 27 32 0 34 -2 37 -40 4 -47 -15 -65 -67 -65
-54 1 -101 47 -101 100 0 29 29 76 54 89 30 14 82 13 95 -2z m-1730 -304 c-1
-5 -57 -59 -124 -120 l-123 -113 -146 0 -146 0 0 113 c0 63 3 117 7 120 9 10
533 9 532 0z m1039 0 l143 -6 -3 -121 -3 -121 -307 -3 -308 -2 0 130 0 130
168 0 c92 0 231 -3 310 -7z m-588 -66 c0 -62 0 -63 -53 -115 l-53 -52 -263 2
-264 3 122 113 121 112 195 0 195 0 0 -63z m1460 -68 c0 -115 -2 -130 -16
-125 -9 3 -150 6 -315 6 l-299 0 0 125 0 125 315 0 315 0 0 -131z"/>
</g>
</svg>
